<svg width="155" height="37" viewBox="0 0 155 37" fill="none" xmlns="http://www.w3.org/2000/svg">
<rect x="20.3333" y="1" width="106.492" height="35" fill="white" stroke="black" stroke-width="2"/>
<path d="M37.9536 10.402H41.2756L42.9036 15.396L44.5316 10.402H47.8756L45.2136 17.662L46.7976 21.82L50.7136 10.38H54.6516L48.5576 26H45.4336L42.9036 19.884L40.3956 26H37.2496L31.1776 10.38H35.0936L39.0316 21.82L40.5716 17.662L37.9536 10.402ZM59.6543 26.22C58.6717 26.22 57.7917 26.0587 57.0143 25.736C56.2517 25.4133 55.6063 24.9733 55.0783 24.416C54.5503 23.8587 54.147 23.2207 53.8683 22.502C53.6043 21.7833 53.4723 21.028 53.4723 20.236C53.4723 19.4293 53.6043 18.6667 53.8683 17.948C54.147 17.2293 54.5503 16.5913 55.0783 16.034C55.6063 15.4767 56.2517 15.0367 57.0143 14.714C57.7917 14.3913 58.6717 14.23 59.6543 14.23C60.637 14.23 61.5097 14.3913 62.2723 14.714C63.035 15.0367 63.6803 15.4767 64.2083 16.034C64.7363 16.5913 65.1397 17.2293 65.4183 17.948C65.697 18.6667 65.8363 19.4293 65.8363 20.236C65.8363 21.028 65.697 21.7833 65.4183 22.502C65.1397 23.2207 64.7363 23.8587 64.2083 24.416C63.6803 24.9733 63.035 25.4133 62.2723 25.736C61.5097 26.0587 60.637 26.22 59.6543 26.22ZM57.0803 20.236C57.0803 20.8373 57.1903 21.3653 57.4103 21.82C57.645 22.2747 57.953 22.6267 58.3343 22.876C58.7157 23.1253 59.1557 23.25 59.6543 23.25C60.1383 23.25 60.571 23.1253 60.9523 22.876C61.3483 22.612 61.6563 22.2527 61.8763 21.798C62.0963 21.3433 62.2063 20.8227 62.2063 20.236C62.2063 19.6347 62.0963 19.1067 61.8763 18.652C61.6563 18.1973 61.3483 17.8453 60.9523 17.596C60.571 17.3467 60.1383 17.222 59.6543 17.222C59.1557 17.222 58.7157 17.3467 58.3343 17.596C57.953 17.8453 57.645 18.1973 57.4103 18.652C57.1903 19.1067 57.0803 19.6347 57.0803 20.236ZM74.9081 17.464C74.0574 17.464 73.2874 17.6033 72.5981 17.882C71.9087 18.146 71.4101 18.542 71.1021 19.07V26H67.5821V14.45H70.8161V16.782C71.2121 16.0047 71.7254 15.396 72.3561 14.956C72.9867 14.516 73.6467 14.2887 74.3361 14.274C74.4974 14.274 74.6147 14.274 74.6881 14.274C74.7761 14.274 74.8494 14.2813 74.9081 14.296V17.464ZM84.1567 26L81.1427 21.38L79.9107 22.634V26H76.3907V9.94H79.9107V19.224L83.8267 14.45H87.5447L83.3867 19.422L87.8967 26H84.1567ZM95.7831 26.132C94.5365 26.132 93.4731 25.9267 92.5931 25.516C91.7131 25.0907 90.9945 24.5187 90.4371 23.8C89.8945 23.0667 89.4911 22.238 89.2271 21.314C88.9778 20.3753 88.8531 19.3927 88.8531 18.366V10.38H92.4611V18.366C92.4611 18.9527 92.5198 19.5247 92.6371 20.082C92.7545 20.6247 92.9451 21.1087 93.2091 21.534C93.4731 21.9593 93.8105 22.2967 94.2211 22.546C94.6465 22.7953 95.1671 22.92 95.7831 22.92C96.4138 22.92 96.9418 22.7953 97.3671 22.546C97.7925 22.282 98.1298 21.9373 98.3791 21.512C98.6285 21.072 98.8118 20.5807 98.9291 20.038C99.0465 19.4953 99.1051 18.938 99.1051 18.366V10.38H102.713V18.366C102.713 19.4513 102.574 20.4633 102.295 21.402C102.031 22.3407 101.62 23.1693 101.063 23.888C100.506 24.592 99.7871 25.142 98.9071 25.538C98.0418 25.934 97.0005 26.132 95.7831 26.132ZM109.387 26.22C108.404 26.22 107.444 26.0587 106.505 25.736C105.566 25.4133 104.774 24.9367 104.129 24.306L105.339 22.084C106.043 22.5973 106.725 22.986 107.385 23.25C108.06 23.514 108.69 23.646 109.277 23.646C109.732 23.646 110.084 23.5727 110.333 23.426C110.582 23.2793 110.707 23.052 110.707 22.744C110.707 22.524 110.634 22.3553 110.487 22.238C110.34 22.106 110.113 21.9887 109.805 21.886C109.512 21.7833 109.145 21.6733 108.705 21.556C107.825 21.2627 107.092 20.9767 106.505 20.698C105.918 20.4193 105.478 20.082 105.185 19.686C104.892 19.2753 104.745 18.7473 104.745 18.102C104.745 17.3247 104.936 16.65 105.317 16.078C105.713 15.4913 106.27 15.0367 106.989 14.714C107.708 14.3913 108.566 14.23 109.563 14.23C110.355 14.23 111.125 14.3547 111.873 14.604C112.636 14.8533 113.347 15.2713 114.007 15.858L112.643 18.058C111.983 17.6033 111.396 17.2733 110.883 17.068C110.37 16.8627 109.871 16.76 109.387 16.76C109.138 16.76 108.91 16.7893 108.705 16.848C108.5 16.9067 108.331 17.0093 108.199 17.156C108.082 17.288 108.023 17.464 108.023 17.684C108.023 17.904 108.082 18.08 108.199 18.212C108.331 18.344 108.529 18.4613 108.793 18.564C109.072 18.652 109.416 18.762 109.827 18.894C110.78 19.1727 111.572 19.4587 112.203 19.752C112.834 20.0307 113.303 20.3827 113.611 20.808C113.934 21.2187 114.095 21.7687 114.095 22.458C114.095 23.6313 113.67 24.5553 112.819 25.23C111.983 25.89 110.839 26.22 109.387 26.22Z" fill="black"/>
<rect x="20.7538" y="1" width="106.492" height="35" stroke="black" stroke-width="2"/>
</svg>
